<?xml version="1.0" encoding="UTF-8"?>
<svg width="160" height="60" viewBox="0 0 160 60" xmlns="http://www.w3.org/2000/svg" role="img" aria-label="Google Cloud">
  <defs>
    <linearGradient id="g" x1="0%" y1="0%" x2="100%" y2="0%">
      <stop offset="0%" stop-color="#4285F4"/>
      <stop offset="33%" stop-color="#34A853"/>
      <stop offset="66%" stop-color="#FBBC05"/>
      <stop offset="100%" stop-color="#EA4335"/>
    </linearGradient>
  </defs>
  <rect x="1" y="1" width="158" height="58" rx="10" ry="10" fill="#ffffff" stroke="#e5e7eb"/>
  <g transform="translate(18,16)">
    <path d="M24 28c7.18 0 13-5.82 13-13S31.18 2 24 2c-4.29 0-8.11 2.06-10.5 5.25l4.13 3.32C18.78 8.46 21.22 7 24 7c4.97 0 9 4.03 9 9s-4.03 9-9 9c-3.78 0-7.03-2.33-8.37-5.62H24v-5.25H6.75C6.25 15.88 6 17.41 6 19c0 5.52 4.48 10 10 10z" fill="url(#g)"/>
  </g>
  <text x="58" y="37" font-family="Inter, Arial, sans-serif" font-size="18" fill="#111827">Google Cloud</text>
</svg>



